<svg width="146" height="38" viewBox="0 0 146 38" fill="none" xmlns="http://www.w3.org/2000/svg">
<rect width="146" height="38" rx="8" fill="#FF6262"/>
<path d="M50.688 15.032V18.76H54.752V19.96H50.688V23.8H55.232V25H49.232V13.832H55.232V15.032H50.688ZM62.0111 25L59.9311 21.736L57.9311 25H56.4111L59.2431 20.648L56.4111 16.232H58.0591L60.1391 19.48L62.1231 16.232H63.6431L60.8271 20.568L63.6591 25H62.0111ZM64.5474 20.6C64.5474 19.6933 64.7287 18.904 65.0914 18.232C65.454 17.5493 65.9554 17.0213 66.5954 16.648C67.246 16.2747 67.9874 16.088 68.8194 16.088C69.8967 16.088 70.782 16.3493 71.4754 16.872C72.1794 17.3947 72.6434 18.12 72.8674 19.048H71.2994C71.15 18.5147 70.8567 18.0933 70.4194 17.784C69.9927 17.4747 69.4594 17.32 68.8194 17.32C67.9874 17.32 67.3154 17.608 66.8034 18.184C66.2914 18.7493 66.0354 19.5547 66.0354 20.6C66.0354 21.656 66.2914 22.472 66.8034 23.048C67.3154 23.624 67.9874 23.912 68.8194 23.912C69.4594 23.912 69.9927 23.7627 70.4194 23.464C70.846 23.1653 71.1394 22.7387 71.2994 22.184H72.8674C72.6327 23.08 72.1634 23.8 71.4594 24.344C70.7554 24.8773 69.8754 25.144 68.8194 25.144C67.9874 25.144 67.246 24.9573 66.5954 24.584C65.9554 24.2107 65.454 23.6827 65.0914 23C64.7287 22.3173 64.5474 21.5173 64.5474 20.6ZM76.2661 13.16V25H74.8101V13.16H76.2661ZM86.5236 16.232V25H85.0676V23.704C84.7903 24.152 84.401 24.504 83.8996 24.76C83.409 25.0053 82.865 25.128 82.2676 25.128C81.585 25.128 80.9716 24.9893 80.4276 24.712C79.8836 24.424 79.4516 23.9973 79.1316 23.432C78.8223 22.8667 78.6676 22.1787 78.6676 21.368V16.232H80.1076V21.176C80.1076 22.04 80.3263 22.7067 80.7636 23.176C81.201 23.6347 81.7983 23.864 82.5556 23.864C83.3343 23.864 83.9476 23.624 84.3956 23.144C84.8436 22.664 85.0676 21.9653 85.0676 21.048V16.232H86.5236ZM89.734 14.808C89.4567 14.808 89.222 14.712 89.03 14.52C88.838 14.328 88.742 14.0933 88.742 13.816C88.742 13.5387 88.838 13.304 89.03 13.112C89.222 12.92 89.4567 12.824 89.734 12.824C90.0007 12.824 90.2247 12.92 90.406 13.112C90.598 13.304 90.694 13.5387 90.694 13.816C90.694 14.0933 90.598 14.328 90.406 14.52C90.2247 14.712 90.0007 14.808 89.734 14.808ZM90.438 16.232V25H88.982V16.232H90.438ZM94.3755 17.656C94.6315 17.1547 94.9942 16.7653 95.4635 16.488C95.9435 16.2107 96.5248 16.072 97.2075 16.072V17.576H96.8235C95.1915 17.576 94.3755 18.4613 94.3755 20.232V25H92.9195V16.232H94.3755V17.656Z" fill="white"/>
</svg>
